<mxfile host="app.diagrams.net" modified="2023-05-16T08:58:25.646Z" agent="Mozilla/5.0 (Macintosh; Intel Mac OS X 10_15_7) AppleWebKit/605.1.15 (KHTML, like Gecko) Version/16.3 Safari/605.1.15" etag="WqmrtSstc-0dyWr-3XSn" version="21.2.7" type="github">
  <diagram id="C5RBs43oDa-KdzZeNtuy" name="Page-1">
    <mxGraphModel dx="1786" dy="1165" grid="1" gridSize="10" guides="1" tooltips="1" connect="1" arrows="1" fold="1" page="1" pageScale="1" pageWidth="827" pageHeight="1169" math="0" shadow="0">
      <root>
        <mxCell id="WIyWlLk6GJQsqaUBKTNV-0" />
        <mxCell id="WIyWlLk6GJQsqaUBKTNV-1" parent="WIyWlLk6GJQsqaUBKTNV-0" />
        <mxCell id="n-eU_3DC4zFcbtv_YTFx-3" value="" style="rounded=1;whiteSpace=wrap;html=1;dashed=1;" parent="WIyWlLk6GJQsqaUBKTNV-1" vertex="1">
          <mxGeometry x="-70" y="360" width="860" height="470" as="geometry" />
        </mxCell>
        <mxCell id="n-eU_3DC4zFcbtv_YTFx-1" value="" style="rounded=1;whiteSpace=wrap;html=1;dashed=1;" parent="WIyWlLk6GJQsqaUBKTNV-1" vertex="1">
          <mxGeometry x="-40" y="90" width="820" height="170" as="geometry" />
        </mxCell>
        <mxCell id="jyzZ4kDg1ZwlGxl__Olp-17" value="" style="edgeStyle=orthogonalEdgeStyle;rounded=0;orthogonalLoop=1;jettySize=auto;html=1;" parent="WIyWlLk6GJQsqaUBKTNV-1" source="jyzZ4kDg1ZwlGxl__Olp-4" target="jyzZ4kDg1ZwlGxl__Olp-6" edge="1">
          <mxGeometry relative="1" as="geometry" />
        </mxCell>
        <mxCell id="jyzZ4kDg1ZwlGxl__Olp-4" value="语言识别模块" style="rounded=1;whiteSpace=wrap;html=1;fontSize=17;" parent="WIyWlLk6GJQsqaUBKTNV-1" vertex="1">
          <mxGeometry x="230" y="180" width="120" height="60" as="geometry" />
        </mxCell>
        <mxCell id="ayA4d4wzAJmnETh3Zo5m-1" style="edgeStyle=orthogonalEdgeStyle;rounded=0;orthogonalLoop=1;jettySize=auto;html=1;" parent="WIyWlLk6GJQsqaUBKTNV-1" source="jyzZ4kDg1ZwlGxl__Olp-6" target="ayA4d4wzAJmnETh3Zo5m-0" edge="1">
          <mxGeometry relative="1" as="geometry" />
        </mxCell>
        <mxCell id="jyzZ4kDg1ZwlGxl__Olp-6" value="源代码&lt;br&gt;预处理模块" style="rounded=1;whiteSpace=wrap;html=1;fontSize=17;" parent="WIyWlLk6GJQsqaUBKTNV-1" vertex="1">
          <mxGeometry x="410" y="180" width="120" height="60" as="geometry" />
        </mxCell>
        <mxCell id="POpgnarBCO6agSEM3lew-0" style="edgeStyle=orthogonalEdgeStyle;rounded=0;orthogonalLoop=1;jettySize=auto;html=1;" parent="WIyWlLk6GJQsqaUBKTNV-1" source="jyzZ4kDg1ZwlGxl__Olp-8" target="jyzZ4kDg1ZwlGxl__Olp-12" edge="1">
          <mxGeometry relative="1" as="geometry" />
        </mxCell>
        <mxCell id="jyzZ4kDg1ZwlGxl__Olp-8" value="原始信息&lt;br&gt;提取模块" style="rounded=1;whiteSpace=wrap;html=1;fontSize=17;" parent="WIyWlLk6GJQsqaUBKTNV-1" vertex="1">
          <mxGeometry x="338.5" y="400" width="120" height="60" as="geometry" />
        </mxCell>
        <mxCell id="jyzZ4kDg1ZwlGxl__Olp-24" value="" style="edgeStyle=orthogonalEdgeStyle;rounded=0;orthogonalLoop=1;jettySize=auto;html=1;" parent="WIyWlLk6GJQsqaUBKTNV-1" source="jyzZ4kDg1ZwlGxl__Olp-12" target="jyzZ4kDg1ZwlGxl__Olp-22" edge="1">
          <mxGeometry relative="1" as="geometry" />
        </mxCell>
        <mxCell id="jyzZ4kDg1ZwlGxl__Olp-12" value="规范化模块" style="rounded=1;whiteSpace=wrap;html=1;fontSize=17;" parent="WIyWlLk6GJQsqaUBKTNV-1" vertex="1">
          <mxGeometry x="635" y="500" width="120" height="60" as="geometry" />
        </mxCell>
        <mxCell id="POpgnarBCO6agSEM3lew-6" style="edgeStyle=orthogonalEdgeStyle;rounded=0;orthogonalLoop=1;jettySize=auto;html=1;" parent="WIyWlLk6GJQsqaUBKTNV-1" source="jyzZ4kDg1ZwlGxl__Olp-22" target="jyzZ4kDg1ZwlGxl__Olp-25" edge="1">
          <mxGeometry relative="1" as="geometry" />
        </mxCell>
        <mxCell id="jyzZ4kDg1ZwlGxl__Olp-22" value="指纹生成模块" style="rounded=1;whiteSpace=wrap;html=1;fontSize=17;" parent="WIyWlLk6GJQsqaUBKTNV-1" vertex="1">
          <mxGeometry x="635" y="625" width="120" height="60" as="geometry" />
        </mxCell>
        <mxCell id="jyzZ4kDg1ZwlGxl__Olp-31" value="" style="edgeStyle=orthogonalEdgeStyle;rounded=0;orthogonalLoop=1;jettySize=auto;html=1;" parent="WIyWlLk6GJQsqaUBKTNV-1" source="jyzZ4kDg1ZwlGxl__Olp-25" target="jyzZ4kDg1ZwlGxl__Olp-30" edge="1">
          <mxGeometry relative="1" as="geometry" />
        </mxCell>
        <mxCell id="jyzZ4kDg1ZwlGxl__Olp-25" value="&lt;font style=&quot;font-size: 17px;&quot;&gt;指纹特征&lt;br&gt;索引模块&lt;/font&gt;" style="rounded=1;whiteSpace=wrap;html=1;fontSize=17;" parent="WIyWlLk6GJQsqaUBKTNV-1" vertex="1">
          <mxGeometry x="455" y="625" width="120" height="60" as="geometry" />
        </mxCell>
        <mxCell id="jyzZ4kDg1ZwlGxl__Olp-33" value="" style="edgeStyle=orthogonalEdgeStyle;rounded=0;orthogonalLoop=1;jettySize=auto;html=1;" parent="WIyWlLk6GJQsqaUBKTNV-1" source="jyzZ4kDg1ZwlGxl__Olp-30" target="jyzZ4kDg1ZwlGxl__Olp-32" edge="1">
          <mxGeometry relative="1" as="geometry" />
        </mxCell>
        <mxCell id="jyzZ4kDg1ZwlGxl__Olp-30" value="特征指纹数据库" style="shape=cylinder3;whiteSpace=wrap;html=1;boundedLbl=1;backgroundOutline=1;size=15;fontSize=17;" parent="WIyWlLk6GJQsqaUBKTNV-1" vertex="1">
          <mxGeometry x="305" y="610" width="75" height="90" as="geometry" />
        </mxCell>
        <mxCell id="jyzZ4kDg1ZwlGxl__Olp-35" value="" style="edgeStyle=orthogonalEdgeStyle;rounded=0;orthogonalLoop=1;jettySize=auto;html=1;" parent="WIyWlLk6GJQsqaUBKTNV-1" source="jyzZ4kDg1ZwlGxl__Olp-32" target="jyzZ4kDg1ZwlGxl__Olp-34" edge="1">
          <mxGeometry relative="1" as="geometry" />
        </mxCell>
        <mxCell id="jyzZ4kDg1ZwlGxl__Olp-36" value="否" style="edgeLabel;html=1;align=center;verticalAlign=middle;resizable=0;points=[];fontSize=15;" parent="jyzZ4kDg1ZwlGxl__Olp-35" vertex="1" connectable="0">
          <mxGeometry x="0.0857" relative="1" as="geometry">
            <mxPoint as="offset" />
          </mxGeometry>
        </mxCell>
        <mxCell id="jyzZ4kDg1ZwlGxl__Olp-38" value="" style="edgeStyle=orthogonalEdgeStyle;rounded=0;orthogonalLoop=1;jettySize=auto;html=1;" parent="WIyWlLk6GJQsqaUBKTNV-1" source="jyzZ4kDg1ZwlGxl__Olp-32" target="jyzZ4kDg1ZwlGxl__Olp-37" edge="1">
          <mxGeometry relative="1" as="geometry" />
        </mxCell>
        <mxCell id="jyzZ4kDg1ZwlGxl__Olp-39" value="是" style="edgeLabel;html=1;align=center;verticalAlign=middle;resizable=0;points=[];fontSize=17;" parent="jyzZ4kDg1ZwlGxl__Olp-38" vertex="1" connectable="0">
          <mxGeometry x="-0.3" relative="1" as="geometry">
            <mxPoint as="offset" />
          </mxGeometry>
        </mxCell>
        <mxCell id="jyzZ4kDg1ZwlGxl__Olp-32" value="&amp;nbsp; 检测任务？" style="rhombus;whiteSpace=wrap;html=1;fontSize=17;" parent="WIyWlLk6GJQsqaUBKTNV-1" vertex="1">
          <mxGeometry x="115" y="615" width="100" height="80" as="geometry" />
        </mxCell>
        <mxCell id="jyzZ4kDg1ZwlGxl__Olp-34" value="结束" style="ellipse;whiteSpace=wrap;html=1;aspect=fixed;fontSize=17;" parent="WIyWlLk6GJQsqaUBKTNV-1" vertex="1">
          <mxGeometry x="-35" y="615" width="80" height="80" as="geometry" />
        </mxCell>
        <mxCell id="jyzZ4kDg1ZwlGxl__Olp-57" value="" style="edgeStyle=none;rounded=0;orthogonalLoop=1;jettySize=auto;html=1;" parent="WIyWlLk6GJQsqaUBKTNV-1" source="jyzZ4kDg1ZwlGxl__Olp-37" target="jyzZ4kDg1ZwlGxl__Olp-40" edge="1">
          <mxGeometry relative="1" as="geometry" />
        </mxCell>
        <mxCell id="jyzZ4kDg1ZwlGxl__Olp-37" value="指纹检索引擎" style="rounded=1;whiteSpace=wrap;html=1;fillColor=#DBDBDB;strokeColor=#666666;gradientColor=none;fontSize=17;" parent="WIyWlLk6GJQsqaUBKTNV-1" vertex="1">
          <mxGeometry x="105" y="750" width="120" height="60" as="geometry" />
        </mxCell>
        <mxCell id="jyzZ4kDg1ZwlGxl__Olp-61" value="" style="edgeStyle=none;rounded=0;orthogonalLoop=1;jettySize=auto;html=1;" parent="WIyWlLk6GJQsqaUBKTNV-1" source="jyzZ4kDg1ZwlGxl__Olp-40" target="jyzZ4kDg1ZwlGxl__Olp-60" edge="1">
          <mxGeometry relative="1" as="geometry" />
        </mxCell>
        <mxCell id="jyzZ4kDg1ZwlGxl__Olp-40" value="相似计算模块" style="rounded=1;whiteSpace=wrap;html=1;fontSize=17;" parent="WIyWlLk6GJQsqaUBKTNV-1" vertex="1">
          <mxGeometry x="285" y="750" width="120" height="60" as="geometry" />
        </mxCell>
        <mxCell id="jyzZ4kDg1ZwlGxl__Olp-41" value="" style="endArrow=none;dashed=1;html=1;dashPattern=1 3;strokeWidth=2;rounded=0;exitX=0.145;exitY=1;exitDx=0;exitDy=-4.35;exitPerimeter=0;" parent="WIyWlLk6GJQsqaUBKTNV-1" source="jyzZ4kDg1ZwlGxl__Olp-30" target="jyzZ4kDg1ZwlGxl__Olp-37" edge="1">
          <mxGeometry width="50" height="50" relative="1" as="geometry">
            <mxPoint x="395" y="675" as="sourcePoint" />
            <mxPoint x="445" y="625" as="targetPoint" />
          </mxGeometry>
        </mxCell>
        <mxCell id="jyzZ4kDg1ZwlGxl__Olp-50" value="" style="edgeStyle=none;rounded=0;orthogonalLoop=1;jettySize=auto;html=1;" parent="WIyWlLk6GJQsqaUBKTNV-1" source="jyzZ4kDg1ZwlGxl__Olp-49" target="jyzZ4kDg1ZwlGxl__Olp-6" edge="1">
          <mxGeometry relative="1" as="geometry" />
        </mxCell>
        <mxCell id="OAWIFn0U_RYJsTswj_zg-0" value="&lt;span style=&quot;font-size: 17px; background-color: rgb(251, 251, 251);&quot;&gt;注册&lt;/span&gt;" style="edgeLabel;html=1;align=center;verticalAlign=middle;resizable=0;points=[];fontSize=17;" parent="jyzZ4kDg1ZwlGxl__Olp-50" vertex="1" connectable="0">
          <mxGeometry x="-0.3" y="-1" relative="1" as="geometry">
            <mxPoint x="-13" y="1" as="offset" />
          </mxGeometry>
        </mxCell>
        <mxCell id="jyzZ4kDg1ZwlGxl__Olp-49" value="&lt;font style=&quot;font-size: 17px;&quot;&gt;多语言&lt;br&gt;符号解析器&lt;br&gt;&lt;/font&gt;" style="rounded=1;whiteSpace=wrap;html=1;fillColor=#f5f5f5;fontColor=#333333;strokeColor=#666666;" parent="WIyWlLk6GJQsqaUBKTNV-1" vertex="1">
          <mxGeometry x="610" y="180" width="120" height="60" as="geometry" />
        </mxCell>
        <mxCell id="jyzZ4kDg1ZwlGxl__Olp-52" value="" style="edgeStyle=none;rounded=0;orthogonalLoop=1;jettySize=auto;html=1;" parent="WIyWlLk6GJQsqaUBKTNV-1" source="jyzZ4kDg1ZwlGxl__Olp-51" target="jyzZ4kDg1ZwlGxl__Olp-8" edge="1">
          <mxGeometry relative="1" as="geometry" />
        </mxCell>
        <mxCell id="OAWIFn0U_RYJsTswj_zg-1" value="&lt;span style=&quot;background-color: rgb(251, 251, 251); font-size: 17px;&quot;&gt;&lt;font style=&quot;font-size: 17px;&quot;&gt;注册&lt;/font&gt;&lt;/span&gt;" style="edgeLabel;html=1;align=center;verticalAlign=middle;resizable=0;points=[];fontSize=17;" parent="jyzZ4kDg1ZwlGxl__Olp-52" vertex="1" connectable="0">
          <mxGeometry x="-0.35" y="-1" relative="1" as="geometry">
            <mxPoint x="-1" y="-7" as="offset" />
          </mxGeometry>
        </mxCell>
        <mxCell id="jyzZ4kDg1ZwlGxl__Olp-51" value="函数解析器" style="rounded=1;whiteSpace=wrap;html=1;fillColor=#f5f5f5;fontSize=17;fontColor=#333333;strokeColor=#666666;" parent="WIyWlLk6GJQsqaUBKTNV-1" vertex="1">
          <mxGeometry x="338.5" y="530" width="120" height="60" as="geometry" />
        </mxCell>
        <mxCell id="jyzZ4kDg1ZwlGxl__Olp-54" value="" style="edgeStyle=none;rounded=0;orthogonalLoop=1;jettySize=auto;html=1;" parent="WIyWlLk6GJQsqaUBKTNV-1" source="jyzZ4kDg1ZwlGxl__Olp-53" target="jyzZ4kDg1ZwlGxl__Olp-22" edge="1">
          <mxGeometry relative="1" as="geometry" />
        </mxCell>
        <mxCell id="OAWIFn0U_RYJsTswj_zg-2" value="&lt;span style=&quot;background-color: rgb(251, 251, 251); font-size: 17px;&quot;&gt;&lt;font style=&quot;font-size: 17px;&quot;&gt;注册&lt;/font&gt;&lt;/span&gt;" style="edgeLabel;html=1;align=center;verticalAlign=middle;resizable=0;points=[];fontSize=17;" parent="jyzZ4kDg1ZwlGxl__Olp-54" vertex="1" connectable="0">
          <mxGeometry x="0.1995" y="-1" relative="1" as="geometry">
            <mxPoint x="-1" y="9" as="offset" />
          </mxGeometry>
        </mxCell>
        <mxCell id="jyzZ4kDg1ZwlGxl__Olp-53" value="哈希计算器" style="rounded=1;whiteSpace=wrap;html=1;fillColor=#f5f5f5;fontSize=17;fontColor=#333333;strokeColor=#666666;" parent="WIyWlLk6GJQsqaUBKTNV-1" vertex="1">
          <mxGeometry x="635" y="750" width="120" height="60" as="geometry" />
        </mxCell>
        <mxCell id="jyzZ4kDg1ZwlGxl__Olp-60" value="相似函数对" style="rounded=1;whiteSpace=wrap;html=1;fontSize=17;" parent="WIyWlLk6GJQsqaUBKTNV-1" vertex="1">
          <mxGeometry x="458.5" y="750" width="120" height="60" as="geometry" />
        </mxCell>
        <mxCell id="zDNLwzV3y-9Us6gca69P-1" style="edgeStyle=orthogonalEdgeStyle;rounded=0;orthogonalLoop=1;jettySize=auto;html=1;entryX=0;entryY=0.5;entryDx=0;entryDy=0;" parent="WIyWlLk6GJQsqaUBKTNV-1" source="zDNLwzV3y-9Us6gca69P-0" target="jyzZ4kDg1ZwlGxl__Olp-4" edge="1">
          <mxGeometry relative="1" as="geometry" />
        </mxCell>
        <mxCell id="zDNLwzV3y-9Us6gca69P-0" value="代码仓库" style="strokeWidth=2;html=1;shape=mxgraph.flowchart.multi-document;whiteSpace=wrap;fontSize=15;" parent="WIyWlLk6GJQsqaUBKTNV-1" vertex="1">
          <mxGeometry x="90" y="180" width="88" height="60" as="geometry" />
        </mxCell>
        <mxCell id="n-eU_3DC4zFcbtv_YTFx-4" value="&lt;font style=&quot;font-size: 25px;&quot;&gt;消费者 × N&lt;/font&gt;" style="text;html=1;align=center;verticalAlign=middle;resizable=0;points=[];autosize=1;strokeColor=none;fillColor=none;" parent="WIyWlLk6GJQsqaUBKTNV-1" vertex="1">
          <mxGeometry x="70" y="490" width="150" height="40" as="geometry" />
        </mxCell>
        <mxCell id="n-eU_3DC4zFcbtv_YTFx-5" value="&lt;font style=&quot;font-size: 25px;&quot;&gt;&lt;font style=&quot;font-size: 25px;&quot;&gt;生产者&amp;nbsp;&lt;/font&gt;× 1&lt;/font&gt;" style="text;html=1;align=center;verticalAlign=middle;resizable=0;points=[];autosize=1;strokeColor=none;fillColor=none;" parent="WIyWlLk6GJQsqaUBKTNV-1" vertex="1">
          <mxGeometry x="70" y="110" width="140" height="40" as="geometry" />
        </mxCell>
        <mxCell id="im_u4SJFgGO7fLEFOUqu-4" style="edgeStyle=orthogonalEdgeStyle;rounded=0;orthogonalLoop=1;jettySize=auto;html=1;" edge="1" parent="WIyWlLk6GJQsqaUBKTNV-1" source="ayA4d4wzAJmnETh3Zo5m-0" target="jyzZ4kDg1ZwlGxl__Olp-8">
          <mxGeometry relative="1" as="geometry" />
        </mxCell>
        <mxCell id="ayA4d4wzAJmnETh3Zo5m-0" value="&lt;font style=&quot;font-size: 19px;&quot;&gt;共享函数文件映射表&lt;/font&gt;" style="rounded=0;whiteSpace=wrap;html=1;fontSize=19;" parent="WIyWlLk6GJQsqaUBKTNV-1" vertex="1">
          <mxGeometry x="315" y="290" width="310" height="40" as="geometry" />
        </mxCell>
        <mxCell id="im_u4SJFgGO7fLEFOUqu-2" style="edgeStyle=orthogonalEdgeStyle;rounded=0;orthogonalLoop=1;jettySize=auto;html=1;entryX=0;entryY=0.5;entryDx=0;entryDy=0;entryPerimeter=0;" edge="1" parent="WIyWlLk6GJQsqaUBKTNV-1" source="im_u4SJFgGO7fLEFOUqu-0" target="zDNLwzV3y-9Us6gca69P-0">
          <mxGeometry relative="1" as="geometry" />
        </mxCell>
        <mxCell id="im_u4SJFgGO7fLEFOUqu-0" value="开始" style="ellipse;whiteSpace=wrap;html=1;aspect=fixed;fontSize=17;" vertex="1" parent="WIyWlLk6GJQsqaUBKTNV-1">
          <mxGeometry x="-35" y="170" width="80" height="80" as="geometry" />
        </mxCell>
      </root>
    </mxGraphModel>
  </diagram>
</mxfile>
